<?xml version="1.0" encoding="UTF-8" standalone="no"?><!DOCTYPE svg PUBLIC "-//W3C//DTD SVG 1.1//EN" "http://www.w3.org/Graphics/SVG/1.1/DTD/svg11.dtd"><svg width="100%" height="100%" viewBox="0 0 16 16" version="1.1" xmlns="http://www.w3.org/2000/svg" xmlns:xlink="http://www.w3.org/1999/xlink" xml:space="preserve" xmlns:serif="http://www.serif.com/" style="fill-rule:evenodd;clip-rule:evenodd;stroke-linejoin:round;stroke-miterlimit:2;"><rect id="ArtBoard1" x="0" y="0" width="16" height="16" style="fill:none;"/><g id="ArtBoard11" serif:id="ArtBoard1"><path id="path2" d="M5.436,9.301l-0,-0.562l-2.924,0.001c-0.231,0 -0.419,0.162 -0.419,0.364l0,6.009l1.339,-1.336c0.211,-0.213 0.493,-0.329 0.792,-0.329l4.354,-0c0.23,-0 0.418,-0.165 0.418,-0.364l0,-3.191l-2.918,-0c-0.353,-0 -0.642,-0.267 -0.642,-0.592l-0,0Z" style="fill:#00a3d3;fill-rule:nonzero;"/><path id="path3" d="M8.834,6.934l-0.105,1.769l1.528,-0.898l-1.423,-0.871Z" style="fill:#00a3d3;fill-rule:nonzero;"/><path id="path4" d="M13.888,1.655c-0.031,-0.108 -0.104,-0.203 -0.205,-0.264l-0.706,-0.434c-0.208,-0.126 -0.468,-0.077 -0.581,0.107l-0.378,0.616l0.384,0.235c0.119,0.073 0.202,0.186 0.234,0.321c0.034,0.135 0.01,0.274 -0.062,0.394l-1.738,2.843c-0.021,0.035 -0.058,0.055 -0.095,0.055c-0.02,-0 -0.041,-0.006 -0.059,-0.015c-0.053,-0.034 -0.07,-0.104 -0.037,-0.157l1.737,-2.845c0.041,-0.066 0.053,-0.144 0.035,-0.221c-0.02,-0.076 -0.066,-0.14 -0.133,-0.182l-0.384,-0.233l-1.842,3.015l-0.018,0.027l-1.105,1.814l1.46,0.892l1.727,-2.828l1.733,-2.839c0.034,-0.056 0.052,-0.121 0.052,-0.188c-0.003,-0.037 -0.006,-0.076 -0.019,-0.113l0,0Z" style="fill:#00a3d3;fill-rule:nonzero;"/><path id="path5" d="M12.272,4.975l-1.747,2.861c-0.022,0.035 -0.047,0.07 -0.077,0.1l-0.035,0.035c-0.006,0.006 -0.014,0.01 -0.02,0.014l-1.733,1.021c-0.018,0.01 -0.037,0.016 -0.057,0.016c-0.019,-0 -0.041,-0.007 -0.058,-0.018c-0.036,-0.021 -0.057,-0.06 -0.055,-0.102l0.117,-2.008c0.003,-0.007 0.003,-0.015 0.004,-0.023c0.004,-0.014 0.01,-0.032 0.015,-0.051c0.014,-0.039 0.032,-0.077 0.053,-0.112l1.07,-1.751l-3.672,0.001c-0.23,-0 -0.418,0.164 -0.418,0.364l-0,3.979c-0,0.202 0.188,0.364 0.418,0.364l4.354,0c0.299,0 0.581,0.118 0.794,0.329l1.336,1.336l0.001,-6.008c0.001,-0.159 -0.12,-0.299 -0.29,-0.347l0,0Z" style="fill:#00a3d3;fill-rule:nonzero;"/></g></svg>